<svg xmlns="http://www.w3.org/2000/svg" width="256" height="256"><path fill-opacity=".016" d="M0 128.004v128.004l128.25-.254 128.25-.254.254-127.75L257.008 0H0v128.004m.485.496c0 70.4.119 99.053.265 63.672.146-35.38.146-92.98 0-128C.604 29.153.485 58.1.485 128.5" fill="#1976D2" fill-rule="evenodd"/><path fill-opacity=".299" d="M60.709 38.434C58.68 40.462 57.678 76.828 57.58 152l-.08 60.5 2.788 4.107c1.534 2.259 4.009 4.694 5.5 5.412 2.105 1.014 16.133 1.403 62.712 1.741l60 .436 3.387-2.348c2.193-1.52 4.067-4.097 5.315-7.307 1.856-4.771 1.907-7.374 1.351-68.5-.751-82.623-1.546-106.798-3.553-108.064-.903-.57-27.633-.952-67.179-.962-55.718-.013-65.896.202-67.112 1.419M110.5 154.5V175l13-.002c15.274-.001 18.88-1.204 21.853-7.291 2.398-4.908 1.557-9.764-2.244-12.962l-2.823-2.376 2.357-2.74c2.501-2.908 3.064-7.439 1.327-10.684-2.122-3.965-6.118-4.945-20.17-4.945h-13.3v20.5m10.5-9v4.5h5.965c4.866 0 6.155-.355 6.996-1.928 2.238-4.181-1.194-7.072-8.395-7.072H121v4.5m0 16.5v5h6.3c6.983 0 8.7-1.019 8.7-5.165 0-3.595-2.42-4.835-9.434-4.835H121v5" fill="#1976D2" fill-rule="evenodd"/><path fill-opacity=".25" d="M60.406 39.502c-1.406 2.147-1.587 5.117-1.273 20.87l.367 18.367 2.385-1.87C64.044 75.177 66.281 75 85.474 75c21.095 0 21.21.012 22.242 2.277C111.347 85.245 118.928 90 128 90s16.653-4.755 20.284-12.723c1.032-2.265 1.147-2.277 22.242-2.277 19.938 0 21.362.124 23.839 2.073L197 79.145V59.728c0-17.542-.177-19.578-1.829-21.073C193.509 37.15 187.377 37 127.694 37H62.046l-1.64 2.502m56.228 67.084c-23.87 5.778-40.654 30.582-36.671 54.194 2.745 16.275 13.003 29.96 27.729 36.992 7.731 3.691 7.931 3.728 20.36 3.728h12.552l7.948-3.925c31.72-15.664 37.642-55.918 11.712-79.617-12.154-11.107-27.835-15.195-43.63-11.372m-1.134 4.762c-10.397 3.438-20.322 11.08-25.2 19.403-13.118 22.384-5.089 50.626 17.7 62.257 29.144 14.875 64-6.304 64-38.887 0-17.578-9.766-32.888-25.777-40.41-5.936-2.789-7.894-3.189-16.723-3.422-6.303-.166-11.479.225-14 1.059m4.5.75c-7.125 1.391-16.591 6.599-22.021 12.115-22.151 22.504-13.059 59.624 17.104 69.823 13.692 4.63 30.449.967 41.291-9.027 9.968-9.188 14.067-19.385 13.451-33.464-.346-7.903-.869-10.193-3.6-15.739-5.904-11.994-18.184-21.388-31.111-23.801-6.176-1.152-8.821-1.136-15.114.093m-9.77 42.152l.27 21.25 13.5-.062c15.091-.07 18.775-1.169 21.483-6.405 2.889-5.586.967-14.12-3.497-15.538-1.99-.631-1.979-.714.489-3.647 5.071-6.028 2.064-14.02-5.975-15.876-2.2-.509-9.071-.935-15.27-.948L109.96 133l.27 21.25m10.77-8.298V150h5.378c5.934 0 7.983-1.429 7.449-5.195-.296-2.088-.917-2.333-6.577-2.603l-6.25-.297v4.047M121 162v5h5.929c6.256 0 9.071-1.526 9.071-4.916 0-3.296-3.281-5.084-9.329-5.084H121v5m48.2 30.2c-1.8 1.8-1.447 4.598.728 5.761 2.442 1.307 4.817.419 5.617-2.101 1.185-3.736-3.542-6.463-6.345-3.66m2.8 3.8c-.901.582-1.025.975-.309.985.655.008 1.469-.435 1.809-.985.767-1.242.421-1.242-1.5 0" fill="#1976D2" fill-rule="evenodd"/><path fill-opacity=".803" d="M62.25 38.02c-2.035.828-2.242 1.565-2.171 7.698.043 3.73.306 6.22.583 5.532.738-1.827 133.334-1.827 135.247 0 1.074 1.026 1.232.125.885-5.015-.233-3.446-.979-6.821-1.658-7.5-1.516-1.516-129.229-2.203-132.886-.715m51.02 70.066c-13.083 4.146-25.441 15.815-30.275 28.59-2.775 7.333-3.71 20.121-2.005 27.438 3.208 13.774 13.924 27.143 26.457 33.008 33.047 15.464 70.48-9.787 68.292-46.067-.64-10.616-3.389-18.164-9.589-26.327-12.008-15.811-33.828-22.678-52.88-16.642m4.23 2.325c-22.266 5.526-37.62 28.533-33.6 50.348 4.463 24.225 26.562 40.568 50.316 37.211 13.747-1.944 28.161-12.619 34.16-25.3 15.79-33.377-15.073-71.145-50.876-62.259m.246 2.675c-10.685 2.518-22.82 12.464-27.392 22.453-11.869 25.924 2.966 54.417 31.024 59.586 17.161 3.163 36.171-6.656 44.053-22.752 11.673-23.839-1.248-52.153-26.931-59.014-5.584-1.491-15.056-1.616-20.754-.273M110 154.406V176l12.25-.006c14.455-.006 18.726-.988 22.186-5.1 3.819-4.539 3.656-11.956-.352-15.964-1.685-1.685-2.486-3.181-1.898-3.545.56-.346 1.669-2.188 2.465-4.093 1.131-2.707 1.207-4.191.348-6.796-1.974-5.98-4.711-6.948-20.749-7.338l-14.25-.346v21.594m11.6-8.657c.098 3.658.202 3.759 4.212 4.057 4.807.357 8.188-1.146 8.188-3.641 0-2.957-2.16-4.165-7.45-4.166h-5.05l.1 3.75m.243 15.751l-.357 4.5h6.134c6.75 0 9.011-1.437 7.877-5.009-.803-2.532-4.263-3.991-9.461-3.991-3.825 0-3.836.011-4.193 4.5M169 192.75c0 .412 1.307.75 2.905.75 1.597 0 2.695-.338 2.44-.75-.254-.412-1.561-.75-2.904-.75s-2.441.338-2.441.75m2.5 2.25c.34.55.816 1 1.059 1s.441-.45.441-1-.477-1-1.059-1-.781.45-.441 1" fill="#1976D2" fill-rule="evenodd"/></svg>